<svg xmlns="http://www.w3.org/2000/svg" viewBox="0 0 148.6999969482422 168.239990234375">
    <g>
        <g>
            <path
                d="M99.87 49.22zM98.84 48.07zM72.44 43.03L42.25 12.84H30.69l30.19 30.19h11.56zM84.1 43a25.7 25.7 0 0 1 9.12 1.52l-31.7-31.68H50L80.15 43zM85.1 75h-33V43h1L23 12.84H12.84v155.4H89c30.87 0 52.12-11.83 58-31.36zm-1 62.86h-32v-34.45h32c14.65 0 23.75 6.44 23.75 16.88 0 11.1-9.1 17.53-23.75 17.53zM100.78 50.5zM101.55 51.92zM143.2 48.28c-1.49-15.84-13.37-27.37-32.49-32.49l32.49 32.48zM140.82 65.18l.01-.01h-.01v.01zM137.42 69.47L80.79 12.84H69.23l63.84 63.84a33 33 0 0 0 5.16-6.4zM140.54 64.88l.28.28a34.71 34.71 0 0 0 2.32-9.24l-42.09-42.09a104.67 104.67 0 0 0-12.52-1l52 52zM121.31 84.19l.06.06a38.6 38.6 0 0 0 7.48-4.07l-26.69-26.7a17.76 17.76 0 0 1-.24 11.32zM125.79 88.68l19.57 19.56a36.9 36.9 0 0 0-19.57-19.56zM125.76 88.66zM147.79 129.94l.56.56a42.1 42.1 0 0 0 .35-5.33 46.53 46.53 0 0 0-.43-6.31L99 69.57a16.38 16.38 0 0 1-7.22 4.34l56 56z"
                fill="#15AABF"></path>
            <path
                d="M77.65 158.4H0V0h75c35.57 0 58.56 15.84 58.56 40.35 0 15.45-8.65 28.07-22.9 34 17.31 5.39 28.22 20.42 28.22 39.52a38.85 38.85 0 0 1-16.74 32.66c-10.83 7.75-26.2 11.87-44.49 11.87zM3 155.4h74.65c35.91 0 58.21-15.93 58.21-41.57 0-19.36-12.07-34.21-30.75-37.82l-6.19-1.19L105 73.1c15.76-4.48 25.55-17 25.55-32.75 0-11.13-5.12-20.5-14.8-27.09C105.88 6.55 91.78 3 75 3H3zM72.76 128H39.29V90.58h33.47C88.34 90.58 98 97.62 98 109c0 11.69-9.66 19-25.24 19zm-30.47-3h30.47C86.7 125 95 119 95 109c0-9.48-8.53-15.37-22.26-15.37H42.29zm30.47-59.84H39.29v-35h33.47c12.57 0 20.37 6.62 20.37 17.26s-7.99 17.74-20.37 17.74zm-30.47-3h30.47c10.72 0 17.37-5.64 17.37-14.71s-6.49-14.26-17.37-14.26H42.29z"
                fill="#49494d"></path>
        </g>
    </g>
</svg>